<?xml version="1.0" standalone="no"?>
<!DOCTYPE svg PUBLIC "-//W3C//DTD SVG 20010904//EN"
 "http://www.w3.org/TR/2001/REC-SVG-20010904/DTD/svg10.dtd">
<svg version="1.0" xmlns="http://www.w3.org/2000/svg"
 width="4000.000000pt" height="4000.000000pt" viewBox="0 0 4000.000000 4000.000000"
 preserveAspectRatio="xMidYMid meet">
<metadata>
Created by potrace 1.14, written by Peter Selinger 2001-2017
</metadata>
<g transform="translate(0.000000,4000.000000) scale(0.100000,-0.100000)"
fill="#000000" stroke="none">
<path d="M19715 31073 c-203 -18 -415 -96 -595 -216 -98 -65 -253 -221 -320
-321 -81 -122 -116 -206 -283 -686 -86 -245 -158 -452 -161 -460 -5 -12 -47
-19 -199 -32 -105 -10 -439 -40 -742 -68 -1791 -165 -1686 -153 -1843 -206
-309 -103 -597 -369 -727 -671 -69 -160 -105 -327 -105 -487 0 -45 38 -501 85
-1012 120 -1309 261 -2839 284 -3099 11 -121 46 -492 77 -825 31 -333 57 -638
57 -679 l2 -74 -735 -384 c-404 -211 -814 -425 -910 -475 -310 -162 -1032
-538 -1145 -598 -147 -77 -4527 -2363 -5150 -2688 -269 -140 -560 -292 -645
-337 -163 -87 -178 -94 -849 -444 -233 -122 -456 -243 -495 -268 -91 -59 -288
-257 -348 -348 -90 -139 -152 -285 -189 -445 -29 -124 -36 -356 -15 -485 33
-199 59 -257 488 -1077 220 -423 422 -800 449 -840 101 -152 239 -280 418
-387 325 -196 767 -229 1127 -85 38 15 314 155 614 312 300 156 615 320 700
365 234 121 1213 633 1315 687 50 26 666 348 1370 716 704 367 1609 840 2010
1049 402 210 731 381 733 380 2 -2 -171 -501 -649 -1873 -148 -426 -276 -799
-285 -830 -42 -164 -48 -375 -14 -540 89 -439 381 -778 805 -935 39 -14 259
-92 490 -172 913 -317 1860 -649 1864 -651 2 -2 19 -164 37 -361 55 -586 63
-656 88 -754 91 -354 341 -655 679 -814 147 -70 343 -115 499 -115 54 0 1359
117 3426 308 l193 18 152 -52 c84 -29 235 -81 337 -117 102 -36 433 -151 735
-257 774 -270 1575 -549 1810 -632 110 -38 238 -83 285 -98 326 -108 644 -88
945 59 143 70 253 150 356 258 139 145 215 277 297 513 217 625 264 758 272
777 12 28 14 28 240 48 771 66 2281 208 2353 220 172 30 330 93 481 192 84 55
276 245 329 325 176 268 241 544 207 875 -6 54 -28 294 -50 533 -222 2428
-366 3999 -395 4310 -19 206 -68 748 -110 1204 l-76 828 40 117 c21 64 69 202
106 306 65 185 155 444 403 1155 66 190 186 532 265 760 80 228 246 705 370
1060 272 778 337 964 522 1495 79 226 196 561 260 745 64 184 167 477 227 650
150 429 158 459 165 655 6 183 -7 281 -57 436 -101 308 -358 600 -644 729 -74
34 -91 40 -1176 419 -426 149 -894 313 -1040 364 l-265 93 -36 394 c-55 594
-59 626 -85 729 -28 109 -102 270 -170 372 -167 252 -451 446 -750 514 -149
34 -270 39 -464 21 -200 -19 -733 -68 -2025 -187 -539 -49 -1072 -98 -1185
-108 l-205 -19 -900 313 c-495 172 -1244 434 -1665 581 -421 147 -804 277
-851 290 -134 35 -284 49 -414 37z m248 -368 c56 -10 332 -101 828 -274 715
-249 2585 -902 7159 -2498 1174 -410 2275 -794 2445 -853 171 -59 330 -116
355 -126 131 -51 300 -187 380 -304 107 -158 160 -327 160 -512 0 -127 -18
-202 -124 -504 -52 -148 -264 -755 -471 -1349 -208 -594 -440 -1260 -517
-1480 -77 -220 -193 -553 -258 -740 -65 -187 -199 -572 -298 -855 -99 -283
-215 -614 -257 -735 -42 -121 -128 -368 -192 -550 -106 -304 -207 -593 -408
-1170 -42 -121 -161 -463 -265 -760 -104 -297 -254 -729 -335 -960 -80 -231
-161 -463 -180 -515 -18 -52 -103 -295 -188 -540 -86 -245 -221 -632 -300
-860 -80 -228 -231 -660 -335 -960 -105 -300 -256 -734 -337 -965 -81 -231
-214 -613 -297 -850 -82 -236 -232 -666 -333 -955 -101 -289 -261 -748 -355
-1020 -95 -272 -192 -535 -216 -585 -85 -171 -215 -300 -389 -386 -140 -69
-231 -91 -380 -92 -147 -1 -189 7 -435 93 -107 38 -440 154 -740 258 -300 105
-732 256 -960 335 -228 80 -615 215 -860 300 -245 86 -677 236 -960 335 -283
99 -760 266 -1060 370 -300 105 -734 256 -965 337 -540 189 -1389 485 -1810
631 -181 64 -373 130 -425 149 -52 19 -342 120 -645 225 -302 106 -788 275
-1080 377 -291 102 -633 221 -760 265 -126 44 -261 96 -300 115 -225 112 -396
329 -457 581 -28 115 -29 278 -3 382 16 65 167 502 921 2660 l145 415 62 32
c34 18 168 88 297 156 129 68 307 161 395 206 88 46 306 160 485 253 179 94
390 204 470 245 80 42 172 90 205 108 33 18 132 70 220 115 88 45 187 97 220
115 33 18 125 66 205 107 182 95 795 414 915 478 50 26 315 164 590 308 275
143 693 362 930 486 l430 224 194 204 c107 112 280 293 385 403 105 109 241
251 302 315 61 63 267 279 459 480 192 201 390 408 440 460 179 188 352 367
465 485 64 66 165 172 225 235 60 63 153 160 206 215 52 55 248 260 434 455
186 195 363 380 392 410 146 149 180 362 88 548 -81 163 -237 262 -415 262
-36 0 -708 -101 -1505 -225 -792 -124 -1600 -250 -1795 -281 -195 -30 -614
-95 -930 -145 -316 -49 -616 -96 -666 -104 -226 -34 -118 14 -1049 -472 -132
-69 -296 -155 -365 -191 -69 -35 -158 -82 -198 -104 -40 -22 -76 -38 -79 -35
-3 3 256 754 575 1669 319 915 882 2527 1250 3583 369 1056 684 1958 701 2004
79 217 247 401 453 495 170 79 335 102 511 71z m7402 -915 c165 -42 302 -125
426 -258 112 -119 169 -226 209 -390 19 -75 96 -860 86 -870 -3 -2 -240 78
-528 178 -288 100 -1121 391 -1852 646 -731 255 -1332 466 -1334 469 -3 3 1 5
9 5 18 0 912 82 1909 176 852 79 928 82 1075 44z m-9150 -807 c-6 -17 -317
-907 -1669 -4783 -301 -860 -550 -1567 -554 -1571 -4 -3 -70 -39 -147 -79 -77
-40 -163 -86 -192 -102 l-52 -29 -5 33 c-3 18 -17 159 -31 313 -14 154 -61
674 -105 1155 -44 481 -94 1021 -110 1200 -40 438 -139 1512 -201 2185 -56
607 -58 708 -19 845 80 284 305 515 586 603 90 29 124 33 659 82 1290 117
1331 121 1570 145 250 24 279 25 270 3z m3549 -5105 c70 -350 208 -631 419
-855 38 -40 67 -77 65 -82 -1 -5 -48 -56 -103 -113 -55 -57 -185 -193 -290
-303 -104 -110 -238 -249 -296 -310 -58 -60 -159 -166 -225 -235 -65 -68 -171
-178 -234 -243 -63 -66 -120 -125 -125 -131 -10 -10 -146 -153 -370 -386 -101
-106 -167 -175 -525 -548 -107 -112 -201 -212 -209 -221 -14 -17 -17 -17 -66
5 -104 48 -197 64 -425 75 -223 10 -308 24 -367 60 -56 35 -102 98 -124 171
-20 64 -20 72 -6 143 9 41 45 143 80 227 85 200 116 301 123 402 14 172 -54
346 -184 476 -118 118 -216 162 -500 220 -260 54 -341 95 -397 205 -26 50 -30
69 -30 134 1 95 20 139 143 329 126 194 180 309 197 425 l7 43 1696 266 c933
146 1707 267 1719 267 16 1 24 -6 27 -21z m-3834 -633 c0 -3 -44 -74 -97 -158
-157 -246 -203 -363 -203 -518 0 -167 67 -327 190 -449 117 -118 220 -164 495
-220 177 -37 272 -68 321 -105 48 -37 91 -106 104 -169 17 -82 -1 -148 -104
-390 -77 -179 -98 -264 -100 -391 -1 -119 16 -197 61 -288 13 -26 21 -52 18
-58 -4 -5 -2 -8 3 -7 5 2 27 -20 48 -48 50 -67 133 -135 212 -174 109 -54 195
-70 427 -81 116 -5 215 -11 220 -13 13 -4 -235 -131 -252 -129 -7 0 -11 -3 -8
-7 2 -4 -15 -16 -38 -26 -23 -10 -81 -40 -130 -67 -48 -26 -92 -45 -99 -41 -6
4 -9 3 -5 -2 3 -5 -43 -34 -101 -64 -59 -30 -181 -94 -272 -142 -91 -48 -171
-86 -178 -83 -7 3 -11 1 -8 -4 3 -4 -45 -34 -107 -66 -61 -31 -149 -77 -194
-102 -48 -26 -88 -41 -95 -37 -7 4 -10 3 -5 -1 9 -11 -112 -77 -126 -68 -6 4
-7 1 -2 -7 6 -10 4 -12 -9 -7 -9 4 -14 3 -11 -2 4 -8 -30 -26 -45 -23 -3 0
-12 -5 -20 -12 -17 -15 -84 -51 -335 -181 -93 -48 -203 -105 -242 -127 -40
-22 -78 -36 -84 -32 -7 4 -10 3 -6 -2 3 -5 -43 -34 -101 -64 -58 -30 -145 -76
-192 -101 -47 -25 -177 -93 -290 -151 -113 -58 -251 -131 -308 -161 -56 -30
-99 -50 -95 -44 4 7 -8 -1 -26 -16 -19 -15 -40 -26 -48 -23 -8 3 -12 2 -9 -2
5 -9 -131 -79 -146 -75 -4 2 -8 -1 -8 -6 0 -14 -119 -73 -132 -65 -6 4 -8 3
-5 -3 8 -13 -20 -26 -36 -16 -7 3 -9 2 -4 -2 8 -9 -20 -25 -271 -156 -95 -50
-177 -87 -184 -83 -6 4 -8 3 -5 -2 3 -5 -20 -23 -51 -39 -31 -17 -97 -51 -146
-77 -49 -26 -93 -45 -99 -41 -6 4 -7 1 -2 -7 6 -10 4 -12 -9 -7 -9 4 -15 3
-12 -2 7 -11 -43 -33 -57 -25 -7 4 -9 3 -4 -1 10 -11 -230 -138 -245 -129 -6
4 -8 3 -5 -2 4 -8 -320 -186 -343 -189 -3 -1 -21 -11 -40 -23 -19 -12 -41 -20
-48 -17 -7 3 -11 1 -8 -3 6 -10 -309 -174 -318 -165 -3 3 -6 1 -6 -5 0 -15
-198 -114 -212 -106 -6 4 -8 3 -5 -3 4 -7 -132 -83 -336 -188 -188 -98 -375
-196 -414 -217 -40 -22 -78 -36 -84 -32 -7 4 -9 3 -6 -2 3 -6 -49 -38 -116
-73 -67 -35 -150 -79 -184 -97 -35 -19 -63 -31 -63 -27 0 3 -8 -1 -17 -9 -33
-28 -254 -138 -265 -132 -6 4 -8 3 -5 -3 8 -12 -61 -46 -75 -37 -6 4 -8 3 -5
-3 8 -13 -860 -466 -875 -457 -6 4 -8 3 -5 -2 3 -5 -31 -29 -76 -53 -302 -160
-445 -230 -452 -223 -4 4 -5 2 -2 -4 6 -11 -46 -41 -57 -33 -2 2 -12 -3 -22
-12 -11 -9 -66 -41 -124 -71 -530 -278 -839 -438 -843 -438 -13 0 -78 130 -71
141 4 7 3 10 -2 6 -5 -3 -44 61 -86 141 -42 81 -112 215 -156 297 -43 83 -332
634 -641 1225 -310 591 -585 1116 -612 1167 l-49 91 112 60 c111 59 7903 4127
9058 4730 322 167 612 320 645 338 59 33 75 39 75 29z m11084 -5055 c4 -47 32
-348 62 -670 129 -1399 208 -2254 319 -3465 49 -536 153 -1667 166 -1810 25
-260 -21 -453 -151 -645 -55 -80 -186 -202 -277 -254 -79 -47 -222 -99 -303
-110 -45 -6 -719 -69 -1360 -126 -184 -17 -487 -44 -673 -61 -186 -17 -340
-29 -342 -27 -2 2 16 60 40 128 272 779 590 1689 745 2135 106 303 255 730
332 950 77 220 159 456 183 525 23 69 161 463 305 875 144 413 289 827 321
920 33 94 184 527 336 963 180 516 279 787 284 775 3 -10 9 -56 13 -103z
m-20654 -1450 c337 -646 695 -1334 797 -1529 101 -195 180 -357 176 -361 -7
-7 -122 -67 -595 -314 -81 -43 -152 -75 -157 -71 -9 5 -61 103 -244 455 -38
74 -80 154 -93 177 -37 64 -1265 2417 -1267 2426 -3 12 756 408 764 399 4 -4
282 -536 619 -1182z m-1631 513 c34 -65 60 -121 58 -126 -1 -5 -95 -57 -207
-116 -379 -198 -494 -258 -655 -341 -205 -107 -275 -147 -355 -206 -207 -152
-365 -402 -418 -664 -18 -85 -21 -92 -30 -69 -21 53 -35 193 -29 293 10 170
63 331 154 470 59 90 189 220 272 271 60 38 1128 602 1143 604 4 1 34 -52 67
-116z m10762 -5819 c497 -173 1057 -369 1244 -434 359 -125 1317 -459 1470
-513 l90 -32 -120 -12 c-165 -17 -749 -71 -1750 -163 -297 -28 -616 -57 -710
-66 -97 -9 -206 -13 -255 -10 -385 26 -708 303 -795 680 -14 62 -32 233 -60
566 -8 102 -18 211 -21 243 -4 31 -4 57 -2 57 3 0 412 -142 909 -316z"/>
<path d="M25305 25063 c-245 -30 -607 -171 -693 -268 -74 -85 -92 -207 -44
-301 30 -58 100 -118 162 -139 83 -28 142 -17 271 49 209 108 396 154 583 143
282 -17 543 -161 693 -383 177 -261 221 -631 117 -992 -88 -306 -243 -558
-514 -836 -252 -258 -420 -388 -1061 -816 -597 -400 -793 -548 -1038 -785
-263 -254 -431 -506 -507 -760 -22 -75 -27 -115 -31 -241 -6 -177 10 -262 76
-398 93 -193 228 -319 455 -426 173 -83 351 -121 565 -121 145 0 243 16 461
72 317 82 451 57 527 -98 24 -51 28 -69 28 -153 0 -164 -44 -271 -205 -500
-133 -189 -164 -237 -210 -329 -160 -320 -106 -722 133 -977 153 -164 360
-260 587 -271 115 -6 253 14 296 42 53 35 8 94 -57 75 -60 -18 -200 -23 -279
-11 -388 61 -647 378 -628 766 10 186 62 297 273 576 192 256 254 382 274 559
30 269 -74 464 -294 551 -53 20 -77 23 -195 23 -119 0 -154 -5 -295 -37 -232
-53 -293 -60 -430 -54 -336 17 -619 165 -743 389 -30 53 -61 161 -66 226 -15
234 118 505 379 766 257 259 493 428 1190 856 677 416 1002 668 1280 992 446
520 628 1130 509 1705 -24 116 -60 219 -124 348 -196 398 -589 682 -1040 750
-86 13 -326 18 -405 8z"/>
</g>
</svg>
